<svg version="1.1" id="Layer_1" xmlns="http://www.w3.org/2000/svg" xmlns:xlink="http://www.w3.org/1999/xlink" x="0px" y="0px"
	 width="100%" viewBox="0 0 666 375" enable-background="new 0 0 666 375" xml:space="preserve">
<path fill="#b28585" opacity="1.000000" stroke="none" 
	d="
M109.970612,322.117981 
	C116.017708,322.060760 122.064796,322.003601 128.906097,322.262024 
	C132.840408,322.708008 135.980530,322.838379 139.120651,322.968719 
	C150.865448,323.298462 162.623016,323.390198 174.351715,324.019958 
	C188.117050,324.759033 201.881668,325.713715 215.601654,327.039795 
	C229.556366,328.388550 243.445740,330.399414 257.383850,331.938171 
	C267.955109,333.105286 278.577057,333.821259 289.140961,335.044373 
	C298.500641,336.128052 307.796143,337.757416 317.148132,338.919006 
	C326.545441,340.086273 335.993286,340.847198 345.389954,342.018890 
	C354.740479,343.184753 364.023682,344.950714 373.392792,345.892609 
	C386.271332,347.187347 399.202942,347.954193 412.912964,349.264648 
	C419.466095,349.428223 425.218048,349.274323 430.970032,349.120422 
	C442.799500,347.734009 454.808258,347.191376 466.408600,344.726624 
	C478.291595,342.201782 489.980377,338.342834 501.377930,334.065369 
	C514.045044,329.311371 526.546570,323.946106 538.657227,317.917023 
	C560.306458,307.139313 580.520935,293.946838 599.445496,278.881195 
	C614.368591,267.001129 629.160095,254.946136 643.738037,242.646439 
	C650.671875,236.796219 656.961182,230.183411 663.573242,223.948700 
	C664.380066,223.187958 665.378418,222.630402 666.644043,221.989334 
	C667.000000,273.307251 667.000000,324.614532 667.000000,375.958344 
	C445.000000,375.958344 223.000000,375.958344 1.000000,375.958344 
	C1.000000,362.256897 1.000000,348.597107 0.999999,334.468658 
	C10.192064,332.246857 19.365553,330.387390 28.582579,328.777100 
	C34.973633,327.660522 41.405209,326.711761 47.852955,325.997345 
	C60.948612,324.546356 74.060287,323.226074 87.181480,322.028534 
	C90.798950,321.698364 94.473343,321.991699 98.903488,322.307037 
	C103.113777,322.449402 106.542198,322.283691 109.970612,322.117981 
z"/>
<path fill="#D9D9DE" opacity="1.000000" stroke="none" 
	d="
M109.517876,322.064301 
	C106.542198,322.283691 103.113777,322.449402 99.366699,322.376129 
	C102.387070,322.094971 105.726105,322.052795 109.517876,322.064301 
z"/>
<path fill="#D9D9DE" opacity="1.000000" stroke="none" 
	d="
M138.914642,322.587952 
	C135.980530,322.838379 132.840408,322.708008 129.370117,322.347107 
	C132.262833,322.146820 135.485748,322.177002 138.914642,322.587952 
z"/>
</svg>