<?xml version="1.0" encoding="UTF-8" standalone="no" ?>
<!DOCTYPE svg PUBLIC "-//W3C//DTD SVG 1.1//EN" "http://www.w3.org/Graphics/SVG/1.1/DTD/svg11.dtd">
<svg xmlns="http://www.w3.org/2000/svg" xmlns:xlink="http://www.w3.org/1999/xlink" version="1.1" width="1978" height="100" viewBox="0 0 1978 100" xml:space="preserve">
<desc>Created with Fabric.js 5.2.4</desc>
<defs>
</defs>
<g transform="matrix(1 0 0 1 989 50)" id="d557acf2-56da-44a4-a4f8-5a003582cc97"  >
<rect style="stroke: none; stroke-width: 1; stroke-dasharray: none; stroke-linecap: butt; stroke-dashoffset: 0; stroke-linejoin: miter; stroke-miterlimit: 4; fill: #f8f5f1; fill-rule: nonzero; opacity: 1; visibility: hidden;" vector-effect="non-scaling-stroke"  x="-989" y="-50" rx="0" ry="0" width="1978" height="100" />
</g>
<g transform="matrix(Infinity NaN NaN Infinity 0 0)" id="70f593c3-fdf8-4f52-a1ab-7dbaa2489bf2"  >
</g>
<g transform="matrix(3.53 0 0 1.56 1160.75 -7.28)"  >
<g style="" vector-effect="non-scaling-stroke"   >
		<g transform="matrix(1 0 0 1 0 0)"  >
<path style="stroke: none; stroke-width: 1; stroke-dasharray: none; stroke-linecap: butt; stroke-dashoffset: 0; stroke-linejoin: miter; stroke-miterlimit: 4; fill: #f8f5f1; fill-rule: nonzero; opacity: 1;" vector-effect="non-scaling-stroke"  transform=" translate(-334, -298.97)" d="M 109.970612 322.117981 C 116.017708 322.06076 122.064796 322.003601 128.906097 322.262024 C 132.840408 322.708008 135.98053 322.838379 139.120651 322.968719 C 150.865448 323.298462 162.623016 323.390198 174.351715 324.019958 C 188.11705 324.759033 201.881668 325.713715 215.601654 327.039795 C 229.556366 328.38855 243.44574 330.399414 257.38385 331.938171 C 267.955109 333.105286 278.577057 333.821259 289.140961 335.044373 C 298.500641 336.128052 307.796143 337.757416 317.148132 338.919006 C 326.545441 340.086273 335.993286 340.847198 345.389954 342.01889 C 354.740479 343.184753 364.023682 344.950714 373.392792 345.892609 C 386.271332 347.187347 399.202942 347.954193 412.912964 349.264648 C 419.466095 349.428223 425.218048 349.274323 430.970032 349.120422 C 442.7995 347.734009 454.808258 347.191376 466.4086 344.726624 C 478.291595 342.201782 489.980377 338.342834 501.37793 334.065369 C 514.045044 329.311371 526.54657 323.946106 538.657227 317.917023 C 560.306458 307.139313 580.520935 293.946838 599.445496 278.881195 C 614.368591 267.001129 629.160095 254.946136 643.738037 242.646439 C 650.671875 236.796219 656.961182 230.183411 663.573242 223.9487 C 664.380066 223.187958 665.378418 222.630402 666.644043 221.989334 C 667 273.307251 667 324.614532 667 375.958344 C 445 375.958344 223 375.958344 1 375.958344 C 1 362.256897 1 348.597107 0.999999 334.468658 C 10.192064 332.246857 19.365553 330.38739 28.582579 328.7771 C 34.973633 327.660522 41.405209 326.711761 47.852955 325.997345 C 60.948612 324.546356 74.060287 323.226074 87.18148 322.028534 C 90.79895 321.698364 94.473343 321.991699 98.903488 322.307037 C 103.113777 322.449402 106.542198 322.283691 109.970612 322.117981 z" stroke-linecap="round" />
</g>
		<g transform="matrix(1 0 0 1 -229.56 23.25)"  >
<path style="stroke: none; stroke-width: 1; stroke-dasharray: none; stroke-linecap: butt; stroke-dashoffset: 0; stroke-linejoin: miter; stroke-miterlimit: 4; fill: #f8f5f1; fill-rule: nonzero; opacity: 1;" vector-effect="non-scaling-stroke"  transform=" translate(-104.44, -322.23)" d="M 109.517876 322.064301 C 106.542198 322.283691 103.113777 322.449402 99.366699 322.376129 C 102.38707 322.094971 105.726105 322.052795 109.517876 322.064301 z" stroke-linecap="round" />
</g>
		<g transform="matrix(1 0 0 1 -199.86 23.5)"  >
<path style="stroke: none; stroke-width: 1; stroke-dasharray: none; stroke-linecap: butt; stroke-dashoffset: 0; stroke-linejoin: miter; stroke-miterlimit: 4; fill: #f8f5f1; fill-rule: nonzero; opacity: 1;" vector-effect="non-scaling-stroke"  transform=" translate(-134.14, -322.47)" d="M 138.914642 322.587952 C 135.98053 322.838379 132.840408 322.708008 129.370117 322.347107 C 132.262833 322.14682 135.485748 322.177002 138.914642 322.587952 z" stroke-linecap="round" />
</g>
</g>
</g>
</svg>