<?xml version="1.0" encoding="UTF-8" standalone="no" ?>
<!DOCTYPE svg PUBLIC "-//W3C//DTD SVG 1.1//EN" "http://www.w3.org/Graphics/SVG/1.1/DTD/svg11.dtd">
<svg xmlns="http://www.w3.org/2000/svg" xmlns:xlink="http://www.w3.org/1999/xlink" version="1.1" width="593" height="638" viewBox="0 0 593 638" xml:space="preserve">
<desc>Created with Fabric.js 5.2.4</desc>
<defs>
</defs>
<g transform="matrix(1 0 0 1 296.5 319)" id="2c21ecad-4838-402f-927b-ed15eed805e2"  >
<rect style="stroke: none; stroke-width: 1; stroke-dasharray: none; stroke-linecap: butt; stroke-dashoffset: 0; stroke-linejoin: miter; stroke-miterlimit: 4; fill: rgb(255,255,255); fill-rule: nonzero; opacity: 1; visibility: hidden;" vector-effect="non-scaling-stroke"  x="-296.5" y="-319" rx="0" ry="0" width="593" height="638" />
</g>
<g transform="matrix(Infinity NaN NaN Infinity 0 0)" id="e624909d-7ef2-494b-be82-1408f81987e5"  >
</g>
<g transform="matrix(0.55 0 0 0.62 907.37 934.55)" id="79f80d20-087e-4733-b0a3-588c37fa3f19"  >
<path style="stroke: rgb(0,0,0); stroke-width: 0; stroke-dasharray: none; stroke-linecap: butt; stroke-dashoffset: 0; stroke-linejoin: miter; stroke-miterlimit: 4; fill: rgb(248,245,241); fill-rule: nonzero; opacity: 1;" vector-effect="non-scaling-stroke"  transform=" translate(-579.44, -493.24)" d="M 148.44 170.73 C 185.75 242 206 320.69 231.56 397 C 257.12 473.31 289.56 549.67 345.83 607.19 C 428.92999999999995 692.19 550.94 723.86 666.8299999999999 750.2900000000001 C 782.7199999999998 776.7200000000001 904.8299999999999 804.4200000000001 992.6499999999999 884.48 C 1022.1499999999999 911.38 1047.11 943.69 1080.4999999999998 965.5600000000001 C 1103.3999999999999 980.5600000000001 1158.8799999999997 986.47 1158.8799999999997 986.47 L 1158.8799999999997 0.3 C 1158.8799999999997 0.3 1142.1 0 1132 0 L 244.86 2.47 L 117.61000000000001 2.83 C 81.11000000000001 2.93 34.610000000000014 -4.17 1.4210854715202004e-14 5.25 C 3.090000000000014 30.44 58.69000000000001 54.33 77.23000000000002 72.55 C 106.16000000000003 101 129.67000000000002 134.86 148.44 170.73000000000002 z" stroke-linecap="round" />
</g>
<g transform="matrix(NaN NaN NaN NaN 0 0)"  >
<g style=""   >
</g>
</g>
<g transform="matrix(NaN NaN NaN NaN 0 0)"  >
<g style=""   >
</g>
</g>
<g transform="matrix(NaN NaN NaN NaN 0 0)"  >
<g style=""   >
</g>
</g>
<g transform="matrix(NaN NaN NaN NaN 0 0)"  >
<g style=""   >
</g>
</g>
<g transform="matrix(0.56 0 0 0.68 321.83 328.83)" id="96cb961e-4689-42c7-87d3-361b80fb2d6f"  >
<path style="stroke: rgb(0,0,0); stroke-width: 0; stroke-dasharray: none; stroke-linecap: butt; stroke-dashoffset: 0; stroke-linejoin: miter; stroke-miterlimit: 4; fill: rgb(248,245,241); fill-rule: nonzero; opacity: 1;" vector-effect="non-scaling-stroke"  transform=" translate(-579.44, -493.24)" d="M 148.44 170.73 C 185.75 242 206 320.69 231.56 397 C 257.12 473.31 289.56 549.67 345.83 607.19 C 428.92999999999995 692.19 550.94 723.86 666.8299999999999 750.2900000000001 C 782.7199999999998 776.7200000000001 904.8299999999999 804.4200000000001 992.6499999999999 884.48 C 1022.1499999999999 911.38 1047.11 943.69 1080.4999999999998 965.5600000000001 C 1103.3999999999999 980.5600000000001 1158.8799999999997 986.47 1158.8799999999997 986.47 L 1158.8799999999997 0.3 C 1158.8799999999997 0.3 1142.1 0 1132 0 L 244.86 2.47 L 117.61000000000001 2.83 C 81.11000000000001 2.93 34.610000000000014 -4.17 1.4210854715202004e-14 5.25 C 3.090000000000014 30.44 58.69000000000001 54.33 77.23000000000002 72.55 C 106.16000000000003 101 129.67000000000002 134.86 148.44 170.73000000000002 z" stroke-linecap="round" />
</g>
</svg>